<svg width="33" height="44" viewBox="0 0 33 44" fill="none" xmlns="http://www.w3.org/2000/svg">
<g clip-path="url(#clip0_545_1392)">
<path d="M2.91459 30.9619C6.37931 29.8777 10.6478 30.0179 14.2117 30.2984C15.1318 30.3702 16.0347 30.5241 16.9206 30.7704C17.2318 30.8559 17.502 30.9619 17.7825 31.1158C17.8885 31.174 18.1553 31.4681 18.0766 31.3416C17.9569 31.1535 18.0629 31.0611 17.9432 31.1364C17.4815 31.4305 16.8282 31.5092 16.3049 31.6494C14.971 32.0119 13.5619 32.4087 12.4605 33.274C10.2921 34.9807 11.4481 37.3989 13.6611 38.2026C15.4362 38.8491 17.6662 38.7806 19.5234 38.572C20.6794 38.442 21.9449 38.2231 23.1044 38.4147C23.6585 38.507 23.231 36.8311 22.7829 38.1958C22.5811 38.808 22.6153 39.4168 22.9163 39.9948C24.4315 42.9089 27.9372 43.1175 30.8479 43.1278C33.0505 43.1381 33.0471 39.7212 30.8479 39.7144C29.4182 39.7075 27.8449 39.7657 26.5452 39.085C26.3434 38.9756 26.1792 38.8217 26.0493 38.6336C26.0493 38.8319 26.0493 39.0269 26.0493 39.2219C26.1519 38.9824 26.2545 38.743 26.3537 38.5002C26.4631 37.8059 26.5042 37.1594 26.1313 36.5233C24.8248 34.2933 21.2848 34.9602 19.195 35.1928C18.0253 35.3228 15.3951 35.6443 14.4477 34.8884C14.2699 35.8221 14.4033 36.1128 14.841 35.7606C15.1728 35.5553 15.5525 35.4425 15.9184 35.3193C16.4383 35.1415 16.9753 35.0047 17.5089 34.8576C18.9419 34.4677 20.1356 34.0094 21.0317 32.7747C22.1741 31.1979 21.0146 29.1902 19.6739 28.2667C18.0698 27.162 15.7543 27.0013 13.8834 26.8542C10.1519 26.56 5.62002 26.5327 2.0048 27.6648C-0.088407 28.3181 0.804282 31.6152 2.91117 30.9551L2.91459 30.9619Z" fill="white"/>
<path d="M6.52661 20.4035L21.3671 1.22266L23.669 2.88148L8.02469 21.7545L6.52661 20.4035Z" fill="white"/>
<path d="M8.55128 22.1924L7.50126 21.3203L22.677 3.00818L21.5038 2.16337L7.06689 20.8209L5.9895 19.983L21.2302 0.282227L24.6573 2.7585L8.55128 22.1924Z" fill="#020202"/>
<path d="M3.34234 22.6988C4.18372 23.0887 3.73909 24.4124 4.43682 24.7065C4.78227 24.8536 5.1927 24.3439 5.56893 24.6826C5.86991 24.9493 5.83571 25.4282 5.67496 25.8899C7.93233 24.1011 8.05888 21.7787 8.05888 21.7787L6.56765 20.4175C4.86778 20.5919 3.70147 21.4846 2.90112 22.5893C3.04819 22.603 3.19527 22.627 3.34234 22.6954V22.6988Z" fill="white"/>
<path d="M5.67475 26.5737C5.53794 26.5737 5.3977 26.5327 5.278 26.4472C5.03174 26.2728 4.92913 25.9547 5.02832 25.6674C5.08304 25.5066 5.10356 25.3869 5.1104 25.3048C4.97017 25.3561 4.78548 25.4177 4.57342 25.4177C4.42977 25.4177 4.29638 25.3903 4.16641 25.3356C3.49946 25.0517 3.36949 24.3745 3.28056 23.923C3.21558 23.5913 3.16427 23.369 3.0514 23.3177C3.0001 23.2937 2.93853 23.28 2.83251 23.2698C2.58967 23.2458 2.37419 23.0953 2.275 22.873C2.17239 22.6507 2.19976 22.3908 2.34341 22.1924C3.39343 20.7388 4.7889 19.9145 6.49219 19.7435C6.68372 19.723 6.87868 19.7879 7.02233 19.9179L8.51357 21.2792C8.66406 21.416 8.74614 21.6144 8.73588 21.8196C8.72904 21.9256 8.56829 24.4737 6.09544 26.4301C5.97231 26.5293 5.82182 26.5772 5.67133 26.5772L5.67475 26.5737ZM5.27115 23.882C5.55162 23.882 5.81156 23.9846 6.02361 24.1761C6.08518 24.2309 6.157 24.3061 6.22199 24.3985C6.98471 23.4476 7.24465 22.5139 7.33357 22.0453L6.3417 21.1389C5.44901 21.286 4.66919 21.6862 4.01592 22.3326C4.44003 22.7157 4.54948 23.2698 4.62472 23.6631C4.64525 23.7657 4.67261 23.9025 4.69997 24.0017C4.84704 23.947 5.042 23.882 5.27115 23.882Z" fill="black"/>
<path d="M5.56886 24.6826C5.18921 24.3474 4.7822 24.8536 4.43675 24.7065C3.74244 24.4124 4.18365 23.0853 3.34227 22.6988C3.1952 22.6304 3.04813 22.6065 2.90106 22.5928C1.34141 24.751 1.18408 27.7129 1.18408 27.7129C3.2294 27.3846 4.66591 26.6937 5.67831 25.8933C5.83906 25.4316 5.87327 24.9528 5.57228 24.686L5.56886 24.6826Z" fill="white"/>
<path d="M6.02027 24.1728C5.80821 23.9847 5.54827 23.8821 5.26781 23.8821C5.03865 23.8821 4.8437 23.9505 4.69663 24.0018C4.66927 23.906 4.6419 23.7658 4.62138 23.6632C4.52561 23.1707 4.38196 22.4285 3.62608 22.0796C3.37983 21.9633 3.14383 21.9291 2.96597 21.912C2.72655 21.8881 2.48714 21.9941 2.3469 22.1925C0.688077 24.4841 0.506802 27.5486 0.499962 27.6752C0.486281 27.8838 0.571787 28.0822 0.722279 28.219C0.848829 28.3353 1.013 28.3969 1.18059 28.3969C1.2148 28.3969 1.25242 28.3934 1.29004 28.3866C3.23275 28.0753 4.85054 27.4152 6.09552 26.4268C6.19812 26.3447 6.27679 26.2387 6.31783 26.1155C6.70432 25.0005 6.29731 24.4191 6.02027 24.1728ZM5.08312 25.4862C4.24173 26.1087 3.19855 26.5704 1.9741 26.8612C2.11775 25.989 2.44609 24.6243 3.15751 23.4409C3.20539 23.5469 3.23959 23.7145 3.28064 23.9231C3.36956 24.3746 3.49953 25.0518 4.16649 25.3357C4.48457 25.4691 4.87448 25.3904 5.11048 25.3049C5.10706 25.3528 5.10022 25.411 5.08312 25.4862Z" fill="black"/>
</g>
<defs>
<clipPath id="clip0_545_1392">
<rect width="32" height="42.8491" fill="white" transform="translate(0.5 0.282227)"/>
</clipPath>
</defs>
</svg>
