<svg width="33" height="31" viewBox="0 0 33 31" fill="none" xmlns="http://www.w3.org/2000/svg">
<g clip-path="url(#clip0_545_1361)">
<path d="M29.9855 30.395H3.01378C1.62782 30.395 0.5 29.2671 0.5 27.8805C0.5 26.4938 1.62782 25.3667 3.01378 25.3667H29.9855C31.3722 25.3667 32.5 26.4945 32.5 27.8805C32.5 29.2664 31.3722 30.395 29.9855 30.395ZM3.01378 26.6439C2.33182 26.6439 1.77787 27.1985 1.77787 27.8798C1.77787 28.561 2.33253 29.1164 3.01378 29.1164H29.9855C30.6675 29.1164 31.2221 28.561 31.2221 27.8798C31.2221 27.1985 30.6675 26.6439 29.9855 26.6439H3.01378Z" fill="white"/>
<path d="M16.4999 26.6439H6.43057C6.07786 26.6439 5.79199 26.3581 5.79199 26.0053V23.0521C5.79199 22.0117 6.63893 21.1655 7.67857 21.1655H15.2526C16.293 21.1655 17.1385 22.0125 17.1385 23.0521V26.0053C17.1385 26.3581 16.8519 26.6439 16.4999 26.6439ZM7.06986 25.3661H15.8613V23.0514C15.8613 22.715 15.5883 22.442 15.2526 22.442H7.67857C7.34221 22.442 7.06915 22.715 7.06915 23.0514V25.3661H7.06986Z" fill="white"/>
<path d="M5.75435 14.1398C4.19061 14.1398 2.91772 12.8669 2.91772 11.3024C2.91772 9.738 4.19061 8.46582 5.75435 8.46582C7.31808 8.46582 8.59168 9.73871 8.59168 11.3024C8.59168 12.8662 7.31879 14.1398 5.75435 14.1398ZM5.75435 9.74298C4.89461 9.74298 4.19559 10.442 4.19559 11.3017C4.19559 12.1615 4.89461 12.8612 5.75435 12.8612C6.61408 12.8612 7.31381 12.1615 7.31381 11.3017C7.31381 10.442 6.61408 9.74298 5.75435 9.74298Z" fill="white"/>
<path d="M16.6032 5.95618C15.0395 5.95618 13.7666 4.68329 13.7666 3.11956C13.7666 1.55583 15.0388 0.282227 16.6032 0.282227C18.1677 0.282227 19.4406 1.55512 19.4406 3.11956C19.4406 4.684 18.1677 5.95618 16.6032 5.95618ZM16.6032 1.56009C15.7435 1.56009 15.0445 2.25983 15.0445 3.11956C15.0445 3.97929 15.7435 4.67832 16.6032 4.67832C17.463 4.67832 18.1627 3.97929 18.1627 3.11956C18.1627 2.25983 17.463 1.56009 16.6032 1.56009Z" fill="white"/>
<path d="M11.6816 22.4428H8.15661C7.89563 22.4428 7.66097 22.2835 7.56425 22.0417L4.13528 13.4835C4.00372 13.1556 4.16301 12.7844 4.49012 12.6536C4.81865 12.5199 5.18914 12.6813 5.31999 13.0084L8.58897 21.1656H10.7038L7.01385 12.7539C6.87234 12.431 7.01954 12.0541 7.34239 11.9126C7.66168 11.7704 8.04141 11.9176 8.18363 12.2412L12.2661 21.5482C12.3529 21.7459 12.3337 21.9734 12.2163 22.154C12.0976 22.3347 11.8971 22.4435 11.6816 22.4435V22.4428Z" fill="white"/>
<path d="M7.9233 11.5937C7.72419 11.5937 7.52863 11.5005 7.40348 11.327C7.19796 11.0404 7.2641 10.6408 7.55068 10.436L15.5635 4.69591C15.8508 4.4904 16.249 4.55582 16.4545 4.84311C16.66 5.12969 16.5939 5.52933 16.3073 5.73413L8.2945 11.4742C8.18143 11.5553 8.05201 11.5944 7.9233 11.5944V11.5937Z" fill="white"/>
<path d="M5.37751 9.77753C5.17911 9.77753 4.98498 9.68509 4.85911 9.513C4.65289 9.22713 4.71618 8.8282 5.00275 8.62126L14.1078 2.03211C14.393 1.82518 14.7919 1.8906 14.9996 2.17575C15.2058 2.46162 15.1425 2.86055 14.8559 3.06749L5.75084 9.65593C5.63777 9.73771 5.50693 9.77753 5.37751 9.77753Z" fill="white"/>
<path d="M28.9814 5.35227H18.1284C17.7757 5.35227 17.4899 5.06641 17.4899 4.7137C17.4899 4.36098 17.7757 4.07512 18.1284 4.07512H28.8214V2.16436H18.1C17.7473 2.16436 17.4614 1.8785 17.4614 1.52578C17.4614 1.17307 17.7473 0.887207 18.1 0.887207H28.9814C29.5972 0.887207 30.0993 1.38925 30.0993 2.00507V4.23583C30.0993 4.85165 29.598 5.3537 28.9814 5.3537V5.35227Z" fill="white"/>
<path d="M26.8345 12.3193C25.2992 12.3193 24.0491 11.0692 24.0491 9.53391V4.71328C24.0491 4.36057 24.3349 4.07471 24.6877 4.07471H28.9813C29.334 4.07471 29.6199 4.36057 29.6199 4.71328V9.5332C29.6199 11.0685 28.3698 12.3186 26.8345 12.3186V12.3193ZM25.3269 5.35257V9.53391C25.3269 10.3652 26.0032 11.0415 26.8345 11.0415C27.6658 11.0415 28.342 10.3652 28.342 9.53391V5.35257H25.3262H25.3269Z" fill="white"/>
<path d="M26.8346 15.5696C26.4819 15.5696 26.196 15.2838 26.196 14.9311V11.6806C26.196 11.3279 26.4819 11.042 26.8346 11.042C27.1873 11.042 27.4732 11.3279 27.4732 11.6806V14.9311C27.4732 15.2838 27.1873 15.5696 26.8346 15.5696Z" fill="white"/>
<path d="M22.2777 2.88258C21.925 2.88258 21.6392 2.59672 21.6392 2.24401V1.52578C21.6392 1.17307 21.925 0.887207 22.2777 0.887207C22.6304 0.887207 22.9163 1.17307 22.9163 1.52578V2.24401C22.9163 2.59672 22.6304 2.88258 22.2777 2.88258Z" fill="white"/>
<path d="M24.4816 2.88258C24.1289 2.88258 23.843 2.59672 23.843 2.24401V1.52578C23.843 1.17307 24.1289 0.887207 24.4816 0.887207C24.8343 0.887207 25.1202 1.17307 25.1202 1.52578V2.24401C25.1202 2.59672 24.8343 2.88258 24.4816 2.88258Z" fill="white"/>
<path d="M26.6852 2.88258C26.3325 2.88258 26.0466 2.59672 26.0466 2.24401V1.52578C26.0466 1.17307 26.3325 0.887207 26.6852 0.887207C27.0379 0.887207 27.3238 1.17307 27.3238 1.52578V2.24401C27.3238 2.59672 27.0372 2.88258 26.6852 2.88258Z" fill="white"/>
</g>
<defs>
<clipPath id="clip0_545_1361">
<rect width="32" height="30.1127" fill="white" transform="translate(0.5 0.282227)"/>
</clipPath>
</defs>
</svg>
